# xmcd CD database file
#
# Track frame offsets:
#	150
#	19712
#	47106
#	70303
#	85065
#	115302
#	133506
#	154573
#	178874
#	193179
#	212977
#	230537
#	251163
#	271545
#
# Disc length: 4090 seconds
#
# Revision: 1
# Processed by: cddbd v1.5.1PL2 Copyright (c) Steve Scherf et al.
# Submitted via: CDex 1.70beta1
#
DISCID=c40ff80e
DTITLE=Arthada and Friends - Cosmic Dream
DYEAR=2002
DGENRE=New Age
TTITLE0=E Jibane Shudhu Dao Go
TTITLE1=Na Pari Tomai
TTITLE2=Father O Father
TTITLE3=Smile, My Soul, Smile
TTITLE4=Swapaner Amije
TTITLE5=Hiyar Nayan
TTITLE6=Cheyechhi Anek
TTITLE7=Tumi Amai Khama Karo
TTITLE8=Enthusiasm
TTITLE9=Amare Diyecho
TTITLE10=Tumi Sthir
TTITLE11=Kanur Lagiya Ganthinu E Mala
TTITLE12=Sumadhur Sure
TTITLE13=Manju Hasini
EXTD=YEAR: 2002
EXTT0=
EXTT1=
EXTT2=
EXTT3=
EXTT4=
EXTT5=
EXTT6=
EXTT7=
EXTT8=
EXTT9=
EXTT10=
EXTT11=
EXTT12=
EXTT13=
PLAYORDER=
